<svg xmlns="http://www.w3.org/2000/svg" version="1.1" xmlns:xlink="http://www.w3.org/1999/xlink" xmlns:svgjs="http://svgjs.com/svgjs" width="512" height="512"><svg version="1.1" id="SvgjsSvg1001" xmlns="http://www.w3.org/2000/svg" xmlns:xlink="http://www.w3.org/1999/xlink" x="0px" y="0px" viewBox="0 0 512 512" style="enable-background:new 0 0 512 512;" xml:space="preserve">
<style type="text/css">
	.st0{fill:#6DB2FF;stroke:url(#SVGID_1_);stroke-width:0.3876;stroke-miterlimit:10;}
	.st1{stroke:#000000;stroke-miterlimit:10;}
</style>
<linearGradient id="SvgjsLinearGradient1000" gradientUnits="userSpaceOnUse" x1="212.5458" y1="309.5184" x2="509.7973" y2="309.5184">
	<stop offset="0" style="stop-color:#000000"></stop>
	<stop offset="0.8054" style="stop-color:#FFFFFF"></stop>
	<stop offset="0.8167" style="stop-color:#E9E9E9"></stop>
	<stop offset="0.8563" style="stop-color:#A4A4A4"></stop>
	<stop offset="0.8936" style="stop-color:#696969"></stop>
	<stop offset="0.9277" style="stop-color:#3C3C3C"></stop>
	<stop offset="0.9578" style="stop-color:#1B1B1B"></stop>
	<stop offset="0.983" style="stop-color:#070707"></stop>
	<stop offset="1" style="stop-color:#000000"></stop>
</linearGradient>
<path class="st0" d="M509.54,490.75c0-1.16-0.88-2.03-1.42-2.45c-0.23-0.18-0.51-0.28-0.8-0.29l-39.4-0.9c-0.04,0-0.07,0-0.11,0
	c-0.41,0.03-3.52,0.2-8.59-1.07c-5.46-1.36-10.76-4.09-14.55-5.91c-3.79-1.82-7.43-8.49-7.43-8.49s-1.67-2.58-1.67-12.43
	s9.4-72.96,10-76.4c0.61-3.44,3.59-18.54,4.09-22.08c0.51-3.54,1.82-18.19,2.32-21.22c0.51-3.03,1.82-10.81,2.43-14.25
	c0.61-3.44,1.11-10.61,1.62-13.34c0.51-2.73,1.92-12.03,2.63-16.27c0.71-4.24,2.22-16.98,2.83-20.41
	c0.58-3.29,1.99-15.93,2.11-17.01c0.01-0.05,0.01-0.09,0.01-0.14c-0.01-0.61,0.01-5.23,1.8-6.55c1.92-1.41,8.56-4.53,7.86-4.22
	c-1.32,0.58,4.58-2.79,8.32-6.03c2.06-1.78,3.85-4.64,5.13-7.06c1.37-2.58,2.05-5.47,2.05-8.4v-1.91c0-0.73-0.59-1.33-1.33-1.33
	h-15.92c-0.84,0-1.47-0.76-1.3-1.58c0.32-1.58,0.85-4.08,1.47-6.4c1.01-3.74,3.96-19.8,4.18-20.77c0.25-1.12,3.3-19.65,3.81-22.28
	c0.51-2.63,5.76-40.32,5.76-40.32s1.82-9.7,0.71-12.53c-0.01-0.03-0.02-0.06-0.03-0.08c-0.76-1.88-2.65-3.05-4.67-3.03l-127.52,1.09
	c-0.2,0-0.39,0.05-0.57,0.13c-0.79,0.39-2.83,1.72-2.83,5.23c0,2.21,0.34,3.37,0.67,3.98c0.23,0.43,0.71,0.66,1.2,0.64
	c2.94-0.14,16.55-0.77,18.14-0.88c2.51-0.17,15.34-1.34,15.34-1.34s5.38-0.75,9.62-0.55c4.24,0.2,12.55,0.31,15.26,5.23
	c1.22,2.22,2.52,5.44,3.55,8.24c1.33,3.61,1.87,7.46,1.59,11.31l-5.21,71.24c-0.05,0.7-0.64,1.24-1.34,1.23l-30.13-0.46
	c0,0-14.96-0.2-23.04,1.01c-8.08,1.21-17.38,2.43-22.64,4.24c-5.26,1.82-9.7,2.83-16.17,6.06c-6.47,3.23-11.52,5.05-15.77,7.68
	c-4.24,2.63-6.67,3.64-12.13,7.68c-5.46,4.04-12.94,9.5-19.81,16.37c-6.87,6.87-14.64,14.74-16.98,17.58
	c-2.14,2.61-9.3,12.4-10.34,14.21c-3.65,6.38-6.64,12.06-11.49,22.77c-4.85,10.71-4.45,8.08-8.89,23.04
	c-4.45,14.96-3.44,11.52-5.05,18.59c-1.62,7.07-2.22,13.14-3.03,20.82c-0.81,7.68-1.41,15.56-1.01,25.87
	c0.4,10.29,1.81,20.98,1.82,21.02c0,0,0,0,0,0c0,0.05,0.82,17.2,8.29,33.35c7.48,16.17,14.89,22.08,14.89,22.08l2.12,1.92
	c1.38,1.25,2.83,2.41,4.35,3.49c4.95,3.52,16.17,10.98,24.95,12.93c11.62,2.58,20.42,2,20.42,2s13.5-0.23,22.65-4.22
	c9.15-3.99,14.67-8.8,19.6-14.55c4.93-5.75,11.03-14.44,13.38-18.78c2.35-4.34,8.45-17.49,10.8-23.71c2.35-6.22,8.1-25.7,8.1-25.7
	l6.1-25.47l6.69-32.04l7.39-39.9l7.86-48.35l3.69-26.25c0.28-2,2.27-3.27,4.2-2.7l3.62,1.08c1.95,0.58,3.19,2.49,2.93,4.51
	l-3.54,27.24l-8.33,54.81l-7.86,47.77l-9.98,57.51l-4.6,21.22c0,0-2.49,10.65-3.2,13.41c-0.46,1.82-0.91,4.22-1.16,5.62
	c-0.14,0.79-0.32,1.57-0.54,2.34c-0.69,2.44-2.21,7.85-2.62,9.56c-0.53,2.23-1.26,5.02-0.23,7.83c1.03,2.82,3.7,3.84,3.7,3.84
	s3.05,1.29,6.24,1.4c3.06,0.11,12.88-0.91,12.88-0.91s9.47-1.76,16.07-2.43c4.27-0.43,22.77-0.35,22.77-0.35l74.64,2.76
	c0.24,0.01,0.47-0.05,0.68-0.16c1.1-0.6,4.69-2.64,6.35-4.68C510,491.66,509.54,492.42,509.54,490.75z M351.45,359.63
	c-1.32,3.58-6.91,24.59-8.39,27.9c-1.48,3.31-7.07,18.51-7.07,18.51l-9.02,19.53c-0.32,0.7-0.68,1.39-1.08,2.08
	c-1.84,3.15-7.33,12.51-9.09,14.77c-2.05,2.62-8.28,9.86-9.64,11.13c-1.24,1.16-3.94,3.72-4.4,4.14c-0.25,0.22-3.42,2.45-3.71,2.65
	c-1.04,0.7-3.03,2-5.34,3.12c-1.95,0.94-4.08,1.73-7.12,2.43c-1.81,0.42-3.73,0.68-5.68,0.82c-0.87,0.06-1.79,0.12-2.49,0.15
	c-17.57,0.66-24.54-5.97-24.98-6.42c-0.02-0.02-0.03-0.03-0.05-0.05c-0.57-0.46-8.93-7.33-13.27-15.58
	c-3.47-6.59-5.06-11.63-6.03-16.5c-0.47-2.34-1.31-10.73-1.07-13.08c0.56-5.47,1.71-16.03,2.55-18.91c0.92-3.14,3.35-9.92,4.3-12.54
	c0.26-0.72,0.57-1.44,0.92-2.15c2.07-4.14,9.66-18.94,14.6-23.7c5.76-5.54,16.45-12.52,23.86-15.02c7.4-2.5,20.24-5.46,27.31-6.44
	c4.95-0.69,14.26-1.11,19.4-1.31c2.37-0.09,4.73-0.07,7.09,0.05c4.79,0.25,13.27,0.73,16.95,1.17c2.99,0.36,4.86,0.62,5.93,0.79
	c0.66,0.1,1.09,0.45,1,0.82C356.14,341.28,352.62,356.45,351.45,359.63z"></path>
<path class="st1" d="M366.66,141.03c0,0-1.33-14.01-4.21-24.09c-2.58-9.05-4.28-11.79-7.4-18.54s-4.81-11.64-10.49-19.21
	s-9.37-14.17-17.87-24.17c-8.51-10-9.22-11.35-22.83-19.73c-13.61-8.38-23.02-10.3-34.29-13.17c-14.2-3.38-19.5-3.8-21.99-4.2
	c-0.3-0.05-0.6-0.07-0.91-0.07l-36.68,0c0,0-26.24,2.97-31.91,4.05c-5.67,1.08-31.67,0.72-31.67,0.72l-76.95-0.72H12.18
	c-1.92,1.3-3.22,3.26-3.63,5.47l-0.34,1.83h29.21c0,0,20.99,0.81,26.38,1.62c3.46,0.52,8.12,0.3,12.48,3.24
	c2.49,1.68,5.3,8.36,6.84,13.22c0.7,2.2,1.06,4.48,1.12,6.78c0.38,14.11,1.07,29.62,1.4,43.52l-3.12,34.33l-3.97,28.92l-5.67,37.3
	l-5.96,34.33l-7.94,36.22l-5.1,18.38l-3.97,13.79c0,0-2.84,8.92-8.51,14.87c-5.67,5.95-7.66,6.67-7.66,6.67l-7.28,1.53
	c-0.23,0.18-0.34,1.95-0.28,2.25c0.06,0.32,0.12,0.62,0.19,0.89c0.23,0.97,1.11,1.66,2.15,1.67l11.37,0.1l6.71,0.05l41.88,1.71
	c0,0,48.78,2.43,68.92,3.78c10.09,0.68,18.68,0.74,27.04,0.2c6.78-0.44,15.06-0.94,25.57-3.44c8.79-2.09,16.16-4.85,20.56-6.49
	c4.22-1.58,7.65-3.02,9.83-3.96c5.98-2.59,11-5.11,14.94-7.21c3.46-2.16,7.49-3.83,13.09-8.15c4.42-3.41,8.84-6.97,14.46-12.03
	c12.61-11.33,21.65-19.43,24.53-22.17c8.33-7.91,11.18-11.17,17.58-18.25c9.22-10.19,14.86-19.21,16.6-21.63
	c5.79-8.01,9.38-12.97,13.83-21.99c3.33-6.75,9.85-24.6,11.23-36.62C368.12,159.87,367.21,147.92,366.66,141.03z M281.99,219.08
	c0,0-0.16,3.28-1.27,8.46c-1.11,5.18-2.06,9.81-3.33,12.95c-1.27,3.14-0.95,2.32-2.53,6.27c-1.58,3.95-3.96,8.86-5.7,11.59
	c-1.74,2.73-3.8,6.68-6.18,9.95c-2.38,3.27-4.91,7.09-7.92,10.5c-3.01,3.41-6.49,6.95-11.4,10.91c-4.91,3.95-9.66,7.09-14.57,9.95
	s-8.71,3.82-14.25,6.41c-5.54,2.59-16.47,4.91-22.65,6c-6.18,1.09-15.04,2.32-17.58,2.32c-2.53,0-12.19,0-12.19,0
	s-7.13-1.09-11.09-2.45c-3.96-1.36-7.44-2.59-10.77-4.5c-3.33-1.91-8.39-5.32-10.77-8.04c-2.38-2.73-5.23-8.04-6.81-12.41
	c-1.58-4.36-3.33-12-3.64-14.04c-0.32-2.04,0-16.22,0-16.22l2.22-29.17c0,0,2.69-22.5,4.28-29.73c1.58-7.23,4.59-25.36,4.59-25.36
	s3.96-20.72,6.18-28.9c2.22-8.18,6.18-19.77,9.03-24.68c2.85-4.91,10.29-11.86,10.29-11.86s5.07-3.27,10.29-5.04
	c5.23-1.77,14.57-2.04,14.57-2.04s6.65,0.14,15.99,2.59c9.34,2.45,19.8,6.95,19.8,6.95s12.51,5.59,16.63,8.59
	c4.12,3,6.81,3.95,10.29,7.36c3.48,3.41,3.8,2.86,11.09,11.86c7.28,9,10.77,14.31,12.99,18.27s4.12,6.95,5.7,11.32
	c1.58,4.36,3.96,10.22,5.54,15.54c1.58,5.32,1.58,8.18,2.38,12.27c0.79,4.09,0.79,9.95,0.79,9.95V219.08z"></path>
</svg><style>@media (prefers-color-scheme: light) { :root { filter: none; } }
</style></svg>